<?xml version="1.0" standalone="no"?>
<!DOCTYPE svg PUBLIC "-//W3C//DTD SVG 20010904//EN"
 "http://www.w3.org/TR/2001/REC-SVG-20010904/DTD/svg10.dtd">
<svg version="1.0" xmlns="http://www.w3.org/2000/svg"
 width="512.000000pt" height="512.000000pt" viewBox="0 0 512.000000 512.000000"
 preserveAspectRatio="xMidYMid meet">
<metadata>
Created by potrace 1.16, written by Peter Selinger 2001-2019
</metadata>
<g transform="translate(0.000000,512.000000) scale(0.100000,-0.100000)"
fill="#000000" stroke="none">
<path d="M2346 5104 c-103 -20 -191 -51 -296 -105 -281 -144 -486 -399 -567
-707 -23 -85 -26 -123 -30 -303 l-5 -206 -63 -5 c-128 -11 -256 -101 -311
-221 -26 -55 -29 -73 -29 -162 0 -89 3 -107 29 -162 35 -77 113 -154 193 -190
45 -21 77 -27 155 -31 l99 -5 30 -65 c42 -92 127 -218 209 -305 l70 -75 0
-116 c0 -104 -2 -116 -17 -116 -40 0 -81 -42 -158 -157 l-79 -120 -90 -17
c-431 -83 -842 -358 -1090 -731 -68 -101 -149 -265 -189 -381 -70 -200 -97
-383 -97 -649 0 -187 8 -222 62 -255 33 -20 44 -20 2388 -20 2344 0 2355 0
2388 20 54 33 62 67 62 257 0 336 -45 557 -166 813 -133 281 -343 523 -604
697 -167 112 -411 212 -605 249 l-91 17 -79 119 c-79 121 -116 158 -154 158
-20 0 -21 5 -21 116 l0 116 70 75 c82 88 167 213 210 307 l30 66 73 0 c170 0
308 84 376 229 23 49 26 69 26 156 0 91 -3 106 -31 165 -59 123 -178 207 -308
217 l-64 6 -5 201 c-5 248 -26 338 -116 521 -158 317 -442 535 -781 599 -101
20 -327 20 -424 0z m409 -259 c167 -43 281 -108 405 -234 109 -110 163 -197
209 -336 28 -85 58 -286 45 -307 -7 -12 -164 -10 -269 3 -174 21 -349 87 -497
186 -39 26 -125 99 -192 161 -66 63 -138 123 -158 133 -50 26 -107 24 -148 -3
-51 -35 -68 -66 -86 -153 -26 -129 -71 -201 -161 -261 -53 -35 -190 -91 -200
-81 -10 11 19 240 38 304 99 320 365 550 697 603 76 12 242 4 317 -15z m-240
-902 c231 -153 447 -219 744 -230 l163 -6 -5 -211 c-4 -169 -9 -226 -25 -286
-89 -332 -318 -556 -649 -637 -94 -22 -266 -22 -368 1 -253 57 -480 242 -590
480 -62 133 -76 208 -82 433 -5 167 -3 203 8 206 8 3 50 14 94 26 44 12 118
41 165 63 112 54 230 169 281 274 l34 70 85 -71 c47 -40 112 -90 145 -112z
m-1065 -487 c0 -40 3 -101 7 -136 l6 -63 -44 7 c-111 17 -162 128 -97 211 23
30 70 54 106 55 21 0 22 -4 22 -74z m2320 46 c39 -28 63 -86 55 -129 -9 -52
-59 -98 -114 -107 -24 -4 -45 -5 -47 -4 -1 2 0 63 3 137 l6 133 36 -6 c19 -3
47 -14 61 -24z m-1501 -1158 c132 -37 272 -49 396 -35 120 14 231 41 310 76
l56 24 -3 -122 -3 -121 -230 -178 c-126 -98 -235 -176 -241 -174 -7 3 -114 84
-238 181 l-226 176 0 119 0 119 48 -21 c26 -12 85 -32 131 -44z m-185 -485
c108 -84 196 -156 196 -159 0 -8 -308 -334 -318 -338 -4 -1 -58 101 -121 226
l-114 228 68 102 c38 58 74 101 80 98 7 -2 101 -73 209 -157z m1241 59 l68
-102 -114 -228 c-63 -125 -117 -227 -121 -226 -15 6 -318 332 -316 340 4 10
399 318 408 318 4 0 37 -46 75 -102z m-1680 -495 c107 -212 186 -356 202 -370
14 -11 39 -24 54 -27 60 -12 90 4 174 91 l80 84 58 -86 59 -86 -89 -387 -88
-387 -513 -3 -512 -2 0 212 c0 194 -2 216 -20 245 -50 82 -160 82 -210 0 -18
-29 -20 -51 -20 -244 l0 -213 -226 0 -227 0 6 163 c3 92 13 194 22 237 112
511 475 922 958 1085 56 19 105 35 109 35 3 0 86 -156 183 -347z m2101 321
c111 -36 272 -114 373 -182 109 -73 264 -222 346 -332 75 -99 171 -281 210
-394 50 -148 66 -241 72 -419 l6 -167 -216 0 -215 0 -4 213 c-3 236 -10 261
-74 292 -41 19 -68 19 -110 -1 -60 -29 -64 -48 -64 -289 l0 -215 -522 2 -523
3 -88 387 -89 387 59 86 58 86 80 -84 c84 -87 114 -103 174 -91 15 3 40 16 54
27 16 13 96 160 202 370 97 191 180 347 185 347 4 0 43 -12 86 -26z m-1080
-234 c60 -61 111 -116 113 -121 2 -6 -27 -55 -65 -110 l-68 -99 -86 0 -86 0
-67 98 c-37 53 -67 101 -67 107 0 5 48 59 108 121 59 61 107 112 108 113 1 0
50 -49 110 -109z m24 -920 l77 -335 -104 -3 c-57 -1 -149 -1 -206 0 l-104 3
78 335 c42 184 78 336 78 338 1 2 24 2 53 0 l51 -3 77 -335z"/>
</g>
</svg>
